<svg width="36" height="36" viewBox="0 0 36 36" fill="none" xmlns="http://www.w3.org/2000/svg">
<g clip-path="url(#clip0_7_92)">
<path d="M18 36C27.9411 36 36 27.9411 36 18C36 8.05887 27.9411 0 18 0C8.05887 0 0 8.05887 0 18C0 27.9411 8.05887 36 18 36Z" fill="#42AC97"/>
<path fill-rule="evenodd" clip-rule="evenodd" d="M12.097 17.26C12.0009 17.145 11.8828 17.0504 11.7497 16.9816C11.6166 16.9129 11.4711 16.8715 11.3217 16.8597C11.1723 16.848 11.0221 16.8662 10.8799 16.9134C10.7377 16.9605 10.6063 17.0355 10.4935 17.1341C10.3806 17.2327 10.2886 17.3528 10.2229 17.4874C10.1571 17.622 10.1189 17.7684 10.1104 17.918C10.102 18.0676 10.1235 18.2174 10.1738 18.3585C10.224 18.4997 10.3019 18.6294 10.403 18.74L14.341 23.24C14.778 23.74 15.55 23.755 16.005 23.272L25.568 13.148C25.7729 12.931 25.8832 12.6416 25.8746 12.3433C25.8661 12.045 25.7394 11.7624 25.5225 11.5575C25.3055 11.3526 25.0161 11.2423 24.7178 11.2508C24.4195 11.2594 24.1369 11.386 23.932 11.603L15.219 20.828L12.097 17.26Z" fill="white"/>
</g>
<defs>
<clipPath id="clip0_7_92">
<rect width="36" height="36" fill="white"/>
</clipPath>
</defs>
</svg>
