<svg width="50" height="50" viewBox="0 0 50 50" fill="none" xmlns="http://www.w3.org/2000/svg">
<path d="M42.5 0H7.5C3.35786 0 0 3.35786 0 7.5V42.5C0 46.6421 3.35786 50 7.5 50H42.5C46.6421 50 50 46.6421 50 42.5V7.5C50 3.35786 46.6421 0 42.5 0Z" fill="#1877F2"/>
<path d="M33.9805 27.4609L35.0938 20.2344H28.1602V15.5469C28.1602 13.5742 29.127 11.6406 32.2324 11.6406H35.3867V5.48828C35.3867 5.48828 32.5254 5 29.791 5C24.0781 5 20.3477 8.45703 20.3477 14.7266V20.2344H14V27.4609H20.3477V45.2344H28.1602V27.4609H33.9805Z" fill="white"/>
</svg>
