<svg width="50" height="40" viewBox="0 0 50 40" fill="none" xmlns="http://www.w3.org/2000/svg">
<path d="M15.724 40C34.5928 40 44.9105 24.608 44.9105 11.2633C44.9105 10.8265 44.9105 10.3897 44.8828 9.95687C46.8903 8.5266 48.623 6.75581 50 4.7274C48.1286 5.54465 46.1434 6.08097 44.1104 6.31847C46.251 5.05503 47.8527 3.0692 48.6177 0.730234C46.6037 1.90735 44.4002 2.73692 42.1023 3.18313C40.5559 1.5641 38.5106 0.49205 36.2829 0.132877C34.0553 -0.226295 31.7695 0.147438 29.7793 1.19624C27.7891 2.24504 26.2055 3.91044 25.2735 5.9347C24.3416 7.95896 24.1132 10.2292 24.6237 12.3942C20.5452 12.193 16.5552 11.1495 12.9129 9.33156C9.2705 7.51358 6.05716 4.96172 3.48146 1.84164C2.16834 4.06451 1.76506 6.69659 2.35373 9.20194C2.94241 11.7073 4.47879 13.8975 6.65003 15.3267C5.02878 15.2728 3.44408 14.8383 2.02788 14.0593V14.188C2.0276 16.5173 2.8447 18.7752 4.34089 20.5794C5.83707 22.3837 7.92046 23.6236 10.2384 24.0893C8.7274 24.4946 7.14209 24.5533 5.6044 24.2609C6.25908 26.2689 7.53505 28.0252 9.25372 29.2838C10.9724 30.5425 13.0477 31.2405 15.1893 31.2803C11.5534 34.0839 7.06593 35.6029 2.44772 35.5934C1.62972 35.5938 0.812409 35.5469 0 35.453C4.69055 38.4194 10.1492 39.9939 15.724 39.9883" fill="#1DA1F2"/>
</svg>
